<?xml version="1.0" encoding="UTF-8"?>
<svg id="Layer_1" data-name="Layer 1" xmlns="http://www.w3.org/2000/svg" viewBox="0 0 423.75 206.45">
  <defs>
    <style>
      .cls-1 {
        fill: #f4f4f5;
      }
    </style>
  </defs>
  <path class="cls-1" d="M156,9.74c-2.11-3.11-5.44-4.67-6.33-4.78-.89-.11-97.56-.33-97.56-.33L0,125.41l.28.44,39.29.17,22.8-55.22,23.96.08,16.94,55.08,31.02-.06-21.21-56.37,8.56-.06s15.91-8.17,19.58-17.94c3.67-9.78,14.11-31.89,14.11-31.89,0,0,2.78-6.78.67-9.89ZM121.56,23.51c-1.33,6.17-9.83,25.94-11.5,27.28-1.67,1.33-5.83,7.33-12.17,7.44-6.33.11-31.28-.06-31.28-.06l16.94-42.28h32.39s6.94,1.44,5.61,7.61Z"/>
  <path class="cls-1" d="M254.2,73.5L286.76.39l-35.67.06-115.54,84.94.22,6.44,71.78.22-12.55,28.23,39.44.02,12.86-28.24,13.34-.05,7.79-15.42-12.9-.03s-2.83-.17-1.33-3.06ZM214.09,78l-50.47.45,74.67-55.17-24.2,54.72Z"/>
  <path class="cls-1" d="M391.19,73.11L423.75,0l-35.67.06-115.54,84.94.22,6.44,71.78.22-12.55,28.23,39.44.02,12.86-28.24,13.34-.05,7.79-15.42-12.9-.03s-2.83-.17-1.33-3.06ZM351.09,77.61l-50.47.45,74.67-55.17-24.2,54.72Z"/>
  <path class="cls-1" d="M322.13,135.55l-2.99,8.47h6.07s.69-.67-4.81,14.17-12.92,35.75-12.92,35.75l-2.11,5.08h-5.64l-2.5,7.08,48.67.11,2.67-7.21-4.56-.11c-4.56-.11-2.56-2.77-2.56-2.77l18.78-52.36s3.67.11,6.44-.11c2.78-.22,3.22-8.1,3.22-8.1h-47.78ZM347.52,150.46c-2.67,7.12-18.29,48.62-18.29,48.62l-12.92-.04,19.92-56.33,12.83.04s1.12.58-1.54,7.71Z"/>
  <path class="cls-1" d="M275.67,164.06l-25.67-.11-13.17,35.39-31.96-.11c-.76,0-1.02-.62-1.03-1.38l.08-5.88c-.03-4.23-.03-5.22.43-6.12.24-.46.71-.74,1.23-.74,3.61.02,21.92.17,22.87-.08l3.17-4.94c.47-.91,1.08-4.14,2.11-9.34,1.22-6.22-2.58-8.08-2.58-8.08l-23.55.08c-.54,0-.81-.08-1.35-.1-1.57-.06-4.54,5.85-6.85,9.56-4.32,6.94-4.4,24.38-4.28,27.09l-22.64-.12,2.07-2.81s.04-.05.05-.08l20.31-30.85.08-2.75s-9.72-.08-10.89,0c-1.17.08-17.67,32.47-17.67,32.47l-5.28.03-.09-.68v-30.33l-8.17-.08v35.08s-5.75-.17-15.08.08-4.35-7.84-4.02-8.84,2.17-5.81,3.5-8.22c1.33-2.42,5.31-14.5,5.31-14.5l.19-3.55s-23.65-.17-24.82,0c-1.17.17-3.82,3.17-9.6,9.81-5.76,6.62-6.48,23.98-6.48,23.98h-6.72l-.15-.42s-9.62-22.92-8.88-23.25c.75-.33,3.56-.87,7.97-6.04,4.42-5.17,5.61-12.08,6.94-20.17,1.1-6.68-2.32-10.64-3.27-11.68-.19-.21-.45-.32-.73-.33l-31.1-.11-20.5,69.98-.17.53h10.16c-.19-.01-.33-.02-.33-.02l-.27-.08c-.06,0-.13,0-.19,0-.33,0-.56-.32-.47-.63l8.42-28.35s0-.02,0-.03l1.1-3.05c.07-.2.26-.33.46-.33h11.51c.17,0,.58-.01.75,0,1.32.14,1.36-1.5,4.95,9.61,4.14,12.79,7.41,21.66,8.76,22.87h11.69c0-.05-.01-.1-.01-.16,0-1.4.95-2.54,2.12-2.54s2.12,1.14,2.12,2.54c0,.05-.01.1-.01.15h22.57c0-.09-.02-.18-.02-.27,0-1.4.95-2.54,2.12-2.54s2.12,1.14,2.12,2.54c0,.09-.01.18-.02.26l109.88-.03.19-.43,12-34.67,16.33-.11s4.06-.67-1.22,14.61c-5.12,14.81-5.9,19.91-6.95,20.41l-.16.19h8.09v-.34s6.33-18.22,9-29.83c2.67-11.61-4.39-12.17-4.39-12.17ZM215.28,169.77c8.25,0,10.67,1,10.67,3.81s-1.31,4.58-1.31,4.58l-18.11-.03s.5-8.36,8.75-8.36ZM81.99,168.21c-3.67.17-16.61.17-16.61.17l-.06-3.5,7.11-21.78h1l16.44-.17s5.11,2.67,2.72,10c-2.39,7.33-6.94,15.11-10.61,15.28ZM126.24,189.72c-2.83,8.17-5.92,8.17-10.75,8.17s-5.67-5.42-4.92-13,11.33-12.33,11.33-12.33l10.33.17s-3.17,8.83-6,17Z"/>
</svg>